<svg id="Layer_1" data-name="Layer 1" xmlns="http://www.w3.org/2000/svg" viewBox="0 0 402.9 426.8"><defs><style>.cls-1{fill:#48a16b;}</style></defs><path class="cls-1" d="M405.8,30.8S226.6-49.8,103.5,69.6c0,0-69.3,80.1-43.5,158.3,0,0-30.6-8.2-42.8,15.6,0,0-24.5,34,19.7,50.9,0,0,22.4,7.5,58.4-13.5,0,0,49.6,135.2,167.8,150.1,0,0,8.3.5-.2-3.2,0,0-100.7-44.1-141.9-138.2,0,0,80.1,29.6,153.9-36.5,0,0,38-31.1,52.8-100.2,0,0,28-87.8,78.1-109.6C405.8,43.3,422.8,39.9,405.8,30.8ZM40,280.3s-28.3-11.1-5.7-34.6a31.3,31.3,0,0,1,31.5,2s5.5,16.1,16.2,23.9C82,271.6,61.5,285.7,40,280.3ZM302.4,96.9c-20.2,55.7-52.7,101.8-52.7,101.8-74.7,91.6-130.3,65.6-130.3,65.6,36.3-21,70.1-77.1,70.1-77.1,21-30.1,21.8-80.4,21.8-80.4,11.6-5.4,19-19,19-19,21.4-35.4.4-42.9.4-42.9-23.1-7-33.8,52.8-33.8,52.8-16.9,10.7-37.5-4.5-37.5-4.5-12.8-9.9-8.3,3.7-8.3,3.7,16.1,22.3,43.3,17.7,43.3,17.7.4,76.3-88.2,142.7-88.2,142.7C44.8,233,84.8,135.7,84.8,135.7c22.2-72.6,95.2-92,95.2-92C304.1-6.2,373.4,29.3,373.4,29.3,328.1,39.2,302.4,96.9,302.4,96.9ZM216.5,82.7s1.7-20.3,9.9-22.3C226.4,60.4,228.7,72.7,216.5,82.7Z" transform="translate(-10.4 -4.2)"/></svg>